<svg width="1512" height="910" viewBox="0 0 1512 982" fill="none" xmlns="http://www.w3.org/2000/svg">
<rect width="1512" height="910" fill="white"/>
<path d="M529.976 100.888H532.928V105.856H529.976V100.888ZM520.688 85.768H523.64V88.792H539.372V85.768H542.36V96.496H520.688V85.768ZM523.64 91.096V94.192H539.372V91.096H523.64ZM516.764 99.16H546.176V101.572H516.764V99.16ZM520.328 104.74H542.432V111.976H523.352V116.008H520.4V109.816H539.48V107.008H520.328V104.74ZM520.4 115.144H543.404V117.448H520.4V115.144ZM551.501 86.92H554.453V91.924H563.273V86.92H566.189V101.824H551.501V86.92ZM554.453 94.264V99.376H563.273V94.264H554.453ZM565.361 93.256H574.577V95.704H565.361V93.256ZM573.677 85.264H576.665V103.048H573.677V85.264ZM555.821 104.632H558.773V108.556H573.713V104.632H576.665V117.376H555.821V104.632ZM558.773 110.932V114.928H573.713V110.932H558.773ZM591.71 89.728H593.978V90.196C593.978 94.156 590.27 97.216 584.906 98.152L583.862 95.992C588.326 95.236 591.71 92.968 591.71 90.196V89.728ZM592.358 89.728H594.626V90.196C594.626 92.824 598.046 94.948 602.438 95.668L601.394 97.864C596.102 96.928 592.358 94.012 592.358 90.196V89.728ZM584.582 88H601.718V90.232H584.582V88ZM591.674 96.712H594.662V101.32H591.674V96.712ZM591.674 85.192H594.626V89.08H591.674V85.192ZM587.174 105.136H608.234V112.228H590.162V116.188H587.246V110.068H605.318V107.404H587.174V105.136ZM587.246 115.18H609.494V117.448H587.246V115.18ZM605.246 85.264H608.234V103.732H605.246V85.264ZM606.974 93.04H612.986V95.524H606.974V93.04ZM583.322 102.688L582.962 100.348C588.794 100.348 596.642 100.312 603.23 99.376L603.482 101.464C596.678 102.616 589.046 102.688 583.322 102.688ZM630.948 89.944H640.884V92.392H630.948V89.944ZM630.948 97.432H640.884V99.916H630.948V97.432ZM625.008 87.172C629.796 87.172 633.396 90.412 633.396 94.912C633.396 99.448 629.796 102.652 625.008 102.652C620.184 102.652 616.62 99.448 616.62 94.912C616.62 90.412 620.184 87.172 625.008 87.172ZM625.008 89.728C621.84 89.728 619.5 91.852 619.5 94.912C619.5 97.972 621.84 100.096 625.008 100.096C628.176 100.096 630.552 97.972 630.552 94.912C630.552 91.852 628.176 89.728 625.008 89.728ZM639.912 85.264H642.9V104.524H639.912V85.264ZM632.208 105.28C638.904 105.28 643.044 107.584 643.044 111.508C643.044 115.468 638.904 117.736 632.208 117.736C625.476 117.736 621.336 115.468 621.336 111.508C621.336 107.584 625.476 105.28 632.208 105.28ZM632.208 107.656C627.276 107.656 624.288 109.096 624.288 111.508C624.288 113.956 627.276 115.396 632.208 115.396C637.104 115.396 640.092 113.956 640.092 111.508C640.092 109.096 637.104 107.656 632.208 107.656ZM659.782 87.1H662.734V92.248H671.554V87.1H674.47V102.328H659.782V87.1ZM662.734 94.624V99.916H671.554V94.624H662.734ZM673.642 93.472H682.858V95.956H673.642V93.472ZM681.958 85.264H684.946V104.128H681.958V85.264ZM663.85 105.784H684.946V117.376H663.85V105.784ZM682.03 108.16H666.766V114.964H682.03V108.16ZM700.46 89.26H702.944V91.168C702.944 96.928 699.02 101.464 693.44 103.192L691.964 100.852C696.968 99.376 700.46 95.596 700.46 91.168V89.26ZM701 89.26H703.484V91.168C703.484 95.272 706.904 98.872 711.764 100.276L710.324 102.652C704.816 100.96 701 96.604 701 91.168V89.26ZM693.044 88.36H710.9V90.844H693.044V88.36ZM700.496 101.752H703.484V109.168H700.496V101.752ZM714.824 85.228H717.812V117.844H714.824V85.228ZM691.892 110.932L691.46 108.448C697.4 108.448 705.608 108.412 712.7 107.332L712.952 109.528C705.644 110.896 697.688 110.932 691.892 110.932ZM755.359 85.228H758.383V117.808H755.359V85.228ZM757.555 98.44H763.567V100.924H757.555V98.44ZM747.043 88.756H749.959C749.959 98.008 745.711 106.36 735.199 111.652L733.543 109.348C742.543 104.776 747.043 97.828 747.043 89.224V88.756ZM735.055 88.756H748.591V91.204H735.055V88.756ZM770.476 94.3H792.544V96.748H770.476V94.3ZM770.476 85.912H773.428V95.38H770.476V85.912ZM766.48 100.528H795.892V102.94H766.48V100.528ZM781.132 105.856C788.08 105.856 792.292 107.98 792.292 111.796C792.292 115.54 788.08 117.7 781.132 117.7C774.184 117.7 769.972 115.54 769.972 111.796C769.972 107.98 774.184 105.856 781.132 105.856ZM781.132 108.196C776.056 108.196 772.996 109.492 772.996 111.796C772.996 114.028 776.056 115.324 781.132 115.324C786.244 115.324 789.268 114.028 789.268 111.796C789.268 109.492 786.244 108.196 781.132 108.196ZM807.769 87.1H810.253V90.448C810.253 96.748 806.689 101.896 801.109 103.984L799.561 101.536C804.529 99.772 807.769 95.416 807.769 90.448V87.1ZM808.309 87.1H810.757V90.34C810.757 94.948 813.925 99.016 818.677 100.672L817.057 103.012C811.801 101.032 808.309 96.244 808.309 90.34V87.1ZM823.357 85.264H826.345V104.524H823.357V85.264ZM815.653 105.46C822.349 105.46 826.489 107.728 826.489 111.616C826.489 115.504 822.349 117.736 815.653 117.736C808.921 117.736 804.781 115.504 804.781 111.616C804.781 107.728 808.921 105.46 815.653 105.46ZM815.653 107.836C810.757 107.836 807.769 109.24 807.769 111.616C807.769 113.992 810.757 115.396 815.653 115.396C820.549 115.396 823.537 113.992 823.537 111.616C823.537 109.24 820.549 107.836 815.653 107.836ZM816.301 92.14H824.005V94.624H816.301V92.14ZM842.616 88.288H860.004V90.736H842.616V88.288ZM842.076 104.416L841.716 101.896C847.404 101.86 855.144 101.788 861.516 100.996L861.732 103.228C855.252 104.236 847.62 104.416 842.076 104.416ZM845.82 90.124H848.7V102.4H845.82V90.124ZM853.884 90.124H856.764V102.4H853.884V90.124ZM863.892 85.3H866.88V109.276H863.892V85.3ZM865.944 95.164H871.704V97.684H865.944V95.164ZM846.612 114.64H868.356V117.088H846.612V114.64ZM846.612 106.972H849.6V115.288H846.612V106.972ZM897.009 85.228H899.997V108.808H897.009V85.228ZM899.097 94.912H904.821V97.396H899.097V94.912ZM876.237 100.6H878.757C885.453 100.6 889.233 100.42 893.589 99.52L893.913 101.932C889.449 102.868 885.597 103.084 878.757 103.084H876.237V100.6ZM876.237 88.036H890.601V90.52H879.189V101.932H876.237V88.036ZM879.729 114.64H901.473V117.088H879.729V114.64ZM879.729 106.468H882.717V115.756H879.729V106.468ZM940.568 85.264H943.556V101.86H940.568V85.264ZM930.272 86.848H933.512C933.512 95.056 927.86 100.312 918.356 102.616L917.312 100.168C925.736 98.224 930.272 93.94 930.272 88.324V86.848ZM919.004 86.848H931.64V89.296H919.004V86.848ZM932.36 89.944H941.072V92.32H932.36V89.944ZM932.072 96.172H940.892V98.512H932.072V96.172ZM922.604 103.372H943.556V111.364H925.664V116.548H922.712V109.06H940.604V105.784H922.604V103.372ZM922.712 115.108H944.636V117.484H922.712V115.108ZM951.365 88.828H966.089V91.24H951.365V88.828ZM956.441 98.116H959.393V109.132H956.441V98.116ZM964.865 88.828H967.781V90.556C967.781 93.22 967.781 97.468 966.845 103.516L963.893 103.228C964.865 97.36 964.865 93.184 964.865 90.556V88.828ZM971.885 85.264H974.837V117.808H971.885V85.264ZM974.045 98.872H980.057V101.392H974.045V98.872ZM949.925 110.716L949.565 108.196C955.469 108.196 963.317 108.088 969.905 107.26L970.049 109.456C963.317 110.536 955.685 110.68 949.925 110.716Z" fill="#2C2C2C"/>
<path d="M554 187C554 184.791 555.791 183 558 183H953C955.209 183 957 184.791 957 187V296C957 298.209 955.209 300 953 300H558C555.791 300 554 298.209 554 296V187Z" fill="#D32F2F"/>
<path d="M697.158 218.352H700.998V261.744H697.158V218.352ZM690.294 235.536H698.598V238.8H690.294V235.536ZM687.558 219.264H691.35V259.584H687.558V219.264ZM665.67 223.344H682.23V250.128H665.67V223.344ZM678.486 226.512H669.414V246.96H678.486V226.512ZM708.243 243.216H747.603V246.48H708.243V243.216ZM725.811 245.232H729.747V261.744H725.811V245.232ZM727.827 220.08C736.899 220.08 742.995 223.776 742.995 229.584C742.995 235.392 736.899 239.088 727.827 239.088C718.803 239.088 712.659 235.392 712.659 229.584C712.659 223.776 718.803 220.08 727.827 220.08ZM727.827 223.296C721.203 223.296 716.691 225.744 716.691 229.584C716.691 233.424 721.203 235.872 727.827 235.872C734.451 235.872 738.915 233.424 738.915 229.584C738.915 225.744 734.451 223.296 727.827 223.296ZM769.681 229.44H799.153V232.656H769.681V229.44ZM769.681 219.312H773.617V231.504H769.681V219.312ZM764.353 238.128H803.569V241.296H764.353V238.128ZM781.969 231.552H785.905V240.288H781.969V231.552ZM768.721 245.616H799.249V248.832H768.721V245.616ZM768.289 257.952H799.633V261.168H768.289V257.952ZM775.297 246.576H779.233V259.44H775.297V246.576ZM788.689 246.576H792.625V259.44H788.689V246.576ZM828.093 219.312C837.453 219.312 843.357 222.384 843.357 227.52C843.357 232.656 837.453 235.68 828.093 235.68C818.685 235.68 812.829 232.656 812.829 227.52C812.829 222.384 818.685 219.312 828.093 219.312ZM828.093 222.48C821.181 222.48 816.909 224.304 816.909 227.52C816.909 230.688 821.181 232.56 828.093 232.56C834.957 232.56 839.277 230.688 839.277 227.52C839.277 224.304 834.957 222.48 828.093 222.48ZM813.261 246.864H842.877V261.168H813.261V246.864ZM838.989 250.08H817.197V257.952H838.989V250.08ZM808.461 239.424H847.677V242.64H808.461V239.424Z" fill="white"/>
<mask id="path-4-inside-1_6036_164056" fill="white">
<path d="M285 395C285 390.582 288.582 387 293 387H717C721.418 387 725 390.582 725 395V542C725 546.418 721.418 550 717 550H293C288.582 550 285 546.418 285 542V395Z"/>
</mask>
<path d="M285 395C285 390.582 288.582 387 293 387H717C721.418 387 725 390.582 725 395V542C725 546.418 721.418 550 717 550H293C288.582 550 285 546.418 285 542V395Z" fill="white"/>
<path d="M293 388H717V386H293V388ZM724 395V542H726V395H724ZM717 549H293V551H717V549ZM286 542V395H284V542H286ZM293 549C289.134 549 286 545.866 286 542H284C284 546.971 288.029 551 293 551V549ZM724 542C724 545.866 720.866 549 717 549V551C721.971 551 726 546.971 726 542H724ZM717 388C720.866 388 724 391.134 724 395H726C726 390.029 721.971 386 717 386V388ZM293 386C288.029 386 284 390.029 284 395H286C286 391.134 289.134 388 293 388V386Z" fill="#D9D9D9" mask="url(#path-4-inside-1_6036_164056)"/>
<path d="M325 432.333V427M325 421.667H325.013M338.333 427C338.333 434.364 332.364 440.333 325 440.333C317.636 440.333 311.667 434.364 311.667 427C311.667 419.636 317.636 413.667 325 413.667C332.364 413.667 338.333 419.636 338.333 427Z" stroke="#1E1E1E" stroke-width="3" stroke-linecap="round" stroke-linejoin="round"/>
<path d="M370.952 415.616H373.544V418.856C373.544 424.352 371.624 429.512 367.424 431.576L365.504 429.008C369.248 427.256 370.952 422.984 370.952 418.856V415.616ZM371.6 415.616H374.144V418.856C374.144 422.84 375.728 426.896 379.28 428.624L377.36 431.168C373.352 429.128 371.6 424.184 371.6 418.856V415.616ZM380.168 413.912H383.384V436.136H380.168V413.912ZM382.664 422.456H386.6V425.12H382.664V422.456ZM392.958 416.384H395.598V418.256C395.598 422.456 393.558 426.248 389.286 427.64L387.654 425.144C391.35 423.944 392.958 421.064 392.958 418.256V416.384ZM393.606 416.384H396.222V418.256C396.222 420.896 397.806 423.608 401.43 424.76L399.798 427.232C395.622 425.912 393.606 422.288 393.606 418.256V416.384ZM388.494 415.496H400.59V418.016H388.494V415.496ZM402.822 413.936H406.038V429.968H402.822V413.936ZM391.23 433.208H406.59V435.752H391.23V433.208ZM391.23 428.528H394.422V434.48H391.23V428.528ZM415.277 414.896H418.445V417.512H422.789V414.896H425.957V424.616H415.277V414.896ZM418.445 419.912V422.12H422.789V419.912H418.445ZM428.933 413.912H432.125V425.192H428.933V413.912ZM430.829 418.184H435.053V420.776H430.829V418.184ZM417.437 426.056H432.125V432.104H420.653V434.744H417.485V429.824H428.981V428.504H417.437V426.056ZM417.485 433.52H432.773V435.992H417.485V433.52ZM451.636 413.912H454.828V430.28H451.636V413.912ZM444.724 415.568H448.108C448.108 421.592 444.292 425.984 437.836 427.976L436.516 425.456C441.676 423.824 444.724 420.776 444.724 417.056V415.568ZM437.692 415.568H446.716V418.136H437.692V415.568ZM446.884 418.16H452.092V420.728H446.884V418.16ZM446.668 423.176H451.924V425.72H446.668V423.176ZM440.26 433.208H455.38V435.752H440.26V433.208ZM440.26 428.696H443.476V434.84H440.26V428.696Z" fill="#1E1E1E"/>
<path d="M366.504 452.6H367.816V454.888H371.736V452.6H373.032V459.368H366.504V452.6ZM367.816 455.944V458.296H371.736V455.944H367.816ZM372.664 455.432H376.76V456.536H372.664V455.432ZM376.36 451.784H377.688V460.168H376.36V451.784ZM368.312 460.904H377.688V466.056H368.312V460.904ZM376.392 461.96H369.608V464.984H376.392V461.96ZM391.431 451.784H392.695V460.936H391.431V451.784ZM389.079 455.704H391.815V456.808H389.079V455.704ZM388.343 452.072H389.591V460.424H388.343V452.072ZM380.439 453.512H387.767V454.568H380.439V453.512ZM384.119 455.304C385.927 455.304 387.191 456.296 387.191 457.784C387.191 459.288 385.927 460.264 384.119 460.264C382.295 460.264 381.031 459.288 381.031 457.784C381.031 456.296 382.295 455.304 384.119 455.304ZM384.119 456.296C382.983 456.296 382.215 456.888 382.215 457.784C382.215 458.696 382.983 459.272 384.119 459.272C385.239 459.272 386.007 458.696 386.007 457.784C386.007 456.888 385.239 456.296 384.119 456.296ZM383.463 451.896H384.759V454.104H383.463V451.896ZM387.959 461.192C390.967 461.192 392.775 462.088 392.775 463.704C392.775 465.304 390.967 466.216 387.959 466.216C384.919 466.216 383.127 465.304 383.127 463.704C383.127 462.088 384.919 461.192 387.959 461.192ZM387.959 462.216C385.735 462.216 384.439 462.744 384.439 463.704C384.439 464.664 385.735 465.208 387.959 465.208C390.151 465.208 391.463 464.664 391.463 463.704C391.463 462.744 390.151 462.216 387.959 462.216ZM395.878 453.368H402.422V454.44H395.878V453.368ZM398.134 457.496H399.446V462.392H398.134V457.496ZM401.878 453.368H403.174V454.136C403.174 455.32 403.174 457.208 402.758 459.896L401.446 459.768C401.878 457.16 401.878 455.304 401.878 454.136V453.368ZM404.998 451.784H406.31V466.248H404.998V451.784ZM405.958 457.832H408.63V458.952H405.958V457.832ZM395.238 463.096L395.078 461.976C397.702 461.976 401.19 461.928 404.118 461.56L404.182 462.536C401.19 463.016 397.798 463.08 395.238 463.096ZM415.224 452.904H421.624V453.992H415.224V452.904ZM417.4 456.136H418.712V459.752H417.4V456.136ZM421.096 452.904H422.408V453.672C422.408 454.616 422.408 456.056 422.024 457.96L420.728 457.816C421.096 455.912 421.096 454.6 421.096 453.672V452.904ZM424.376 451.784H425.704V462.68H424.376V451.784ZM425.096 456.488H427.768V457.592H425.096V456.488ZM416.568 464.84H426.168V465.928H416.568V464.84ZM416.568 461.672H417.88V465.176H416.568V461.672ZM414.488 460.376L414.344 459.288C416.92 459.288 420.472 459.224 423.4 458.824L423.496 459.784C420.488 460.312 417.032 460.376 414.488 460.376ZM429.767 459.4H430.807C433.543 459.4 435.015 459.352 436.823 459.032L436.951 460.12C435.111 460.44 433.591 460.504 430.807 460.504H429.767V459.4ZM429.735 452.808H435.959V457.048H431.079V460.056H429.767V455.992H434.647V453.88H429.735V452.808ZM439.735 451.8H441.063V462.44H439.735V451.8ZM436.935 454.216H440.055V455.288H436.935V454.216ZM431.719 464.776H441.511V465.864H431.719V464.776ZM431.719 461.656H433.031V465.256H431.719V461.656ZM436.935 457.464H440.055V458.552H436.935V457.464ZM445.238 456.504H452.214V457.592H445.238V456.504ZM448.022 457.16H449.35V460.056H448.022V457.16ZM445.238 452.728H452.118V453.816H446.566V456.984H445.238V452.728ZM454.39 451.784H455.718V462.6H454.39V451.784ZM446.374 464.84H456.198V465.928H446.374V464.84ZM446.374 461.896H447.686V465.304H446.374V461.896ZM444.134 460.776L443.958 459.688C446.742 459.688 450.262 459.624 453.238 459.272L453.318 460.248C450.262 460.696 446.838 460.776 444.134 460.776ZM466.649 453.032H467.737V455.624C467.737 458.824 466.009 461.944 463.721 463.16L462.905 462.104C465.001 461.048 466.649 458.264 466.649 455.624V453.032ZM466.889 453.032H467.961V455.624C467.961 458.168 469.577 460.808 471.625 461.832L470.809 462.888C468.569 461.688 466.889 458.728 466.889 455.624V453.032ZM472.889 451.784H474.233V466.248H472.889V451.784ZM473.913 457.64H476.601V458.76H473.913V457.64ZM481.671 453.368H482.775V454.84C482.775 457.496 481.143 459.72 478.711 460.6L478.023 459.544C480.199 458.776 481.671 456.904 481.671 454.84V453.368ZM481.927 453.368H483.031V454.84C483.031 456.792 484.535 458.552 486.679 459.272L485.991 460.312C483.591 459.496 481.927 457.384 481.927 454.84V453.368ZM478.375 452.984H486.295V454.056H478.375V452.984ZM488.343 451.8H489.687V462.376H488.343V451.8ZM480.391 464.84H490.119V465.928H480.391V464.84ZM480.391 461.384H481.703V465.32H480.391V461.384ZM503.046 451.768H504.374V466.264H503.046V451.768ZM496.742 452.888C498.886 452.888 500.422 454.856 500.422 457.928C500.422 461.016 498.886 462.984 496.742 462.984C494.614 462.984 493.078 461.016 493.078 457.928C493.078 454.856 494.614 452.888 496.742 452.888ZM496.742 454.088C495.334 454.088 494.342 455.592 494.342 457.928C494.342 460.28 495.334 461.816 496.742 461.816C498.166 461.816 499.142 460.28 499.142 457.928C499.142 455.592 498.166 454.088 496.742 454.088ZM517.433 453.144H518.617V453.576C518.617 456.024 516.009 457.752 513.049 458.2L512.553 457.128C515.113 456.792 517.433 455.352 517.433 453.576V453.144ZM517.993 453.144H519.161V453.576C519.161 455.336 521.497 456.792 524.057 457.128L523.545 458.2C520.601 457.752 517.993 456.024 517.993 453.576V453.144ZM512.953 452.488H523.657V453.56H512.953V452.488ZM513.449 464.84H523.385V465.928H513.449V464.84ZM513.449 461.848H514.777V465.272H513.449V461.848ZM511.753 459.592H524.873V460.664H511.753V459.592ZM517.625 457.192H518.937V460.024H517.625V457.192ZM537.544 451.784H538.808V466.248H537.544V451.784ZM535.256 457.608H538.04V458.728H535.256V457.608ZM534.392 452.088H535.64V465.528H534.392V452.088ZM529.464 454.024H530.504V455.688C530.504 459.16 529.368 461.944 527.144 463.272L526.328 462.248C528.408 461.096 529.464 458.632 529.464 455.688V454.024ZM529.704 454.024H530.744V455.688C530.744 458.344 531.816 460.696 533.848 461.736L533.064 462.76C530.856 461.544 529.704 458.872 529.704 455.688V454.024ZM526.664 453.48H533.384V454.584H526.664V453.48ZM551.094 451.784H552.422V460.184H551.094V451.784ZM551.846 455.464H554.566V456.584H551.846V455.464ZM543.334 460.824H544.63V462.36H551.11V460.824H552.422V466.056H543.334V460.824ZM544.63 463.384V464.984H551.11V463.384H544.63ZM541.238 453.256H549.782V454.344H541.238V453.256ZM545.51 455C547.574 455 548.966 456.008 548.966 457.544C548.966 459.08 547.574 460.088 545.51 460.088C543.43 460.088 542.038 459.08 542.038 457.544C542.038 456.008 543.43 455 545.51 455ZM545.51 456.008C544.182 456.008 543.302 456.616 543.302 457.544C543.302 458.472 544.182 459.08 545.51 459.08C546.806 459.08 547.702 458.472 547.702 457.544C547.702 456.616 546.806 456.008 545.51 456.008ZM544.838 451.64H546.166V453.848H544.838V451.64ZM566.437 451.784H567.765V466.248H566.437V451.784ZM556.837 453.192H558.149V462.152H556.837V453.192ZM556.837 461.368H558.021C560.213 461.368 562.501 461.208 564.949 460.696L565.109 461.832C562.597 462.344 560.309 462.52 558.021 462.52H556.837V461.368ZM580.42 451.768H581.764V466.264H580.42V451.768ZM581.444 457.48H584.132V458.6H581.444V457.48ZM571.252 461.544H572.388C575.06 461.544 576.932 461.448 579.092 461.048L579.236 462.168C577.012 462.584 575.108 462.664 572.388 462.664H571.252V461.544ZM571.252 453.176H577.972V454.264H572.564V462.04H571.252V453.176ZM586.767 465.091C586.487 465.091 586.246 464.991 586.045 464.79C585.845 464.589 585.744 464.348 585.744 464.068C585.744 463.788 585.845 463.547 586.045 463.347C586.246 463.146 586.487 463.045 586.767 463.045C587.047 463.045 587.288 463.146 587.489 463.347C587.689 463.547 587.79 463.788 587.79 464.068C587.79 464.254 587.742 464.424 587.648 464.58C587.557 464.735 587.434 464.86 587.278 464.955C587.127 465.045 586.956 465.091 586.767 465.091Z" fill="#757575"/>
<mask id="path-9-inside-2_6036_164056" fill="white">
<path d="M365 494C365 489.582 368.582 486 373 486H460C464.418 486 468 489.582 468 494V518C468 522.418 464.418 526 460 526H373C368.582 526 365 522.418 365 518V494Z"/>
</mask>
<path d="M365 494C365 489.582 368.582 486 373 486H460C464.418 486 468 489.582 468 494V518C468 522.418 464.418 526 460 526H373C368.582 526 365 522.418 365 518V494Z" fill="#2C2C2C"/>
<path d="M373 487H460V485H373V487ZM467 494V518H469V494H467ZM460 525H373V527H460V525ZM366 518V494H364V518H366ZM373 525C369.134 525 366 521.866 366 518H364C364 522.971 368.029 527 373 527V525ZM467 518C467 521.866 463.866 525 460 525V527C464.971 527 469 522.971 469 518H467ZM460 487C463.866 487 467 490.134 467 494H469C469 489.029 464.971 485 460 485V487ZM373 485C368.029 485 364 489.029 364 494H366C366 490.134 369.134 487 373 487V485Z" fill="#2C2C2C" mask="url(#path-9-inside-2_6036_164056)"/>
<path d="M381.368 500.848H382.424V503.2C382.424 506.208 380.584 509.312 378.328 510.464L377.56 509.408C379.624 508.4 381.368 505.648 381.368 503.2V500.848ZM381.608 500.848H382.664V503.2C382.664 505.488 384.296 508.064 386.392 509.056L385.64 510.112C383.352 508.976 381.608 506.064 381.608 503.2V500.848ZM378.072 500.256H385.864V501.376H378.072V500.256ZM387.576 498.784H388.92V513.248H387.576V498.784ZM388.6 504.624H391.288V505.744H388.6V504.624ZM398.215 503.952H400.983V505.056H398.215V503.952ZM395.511 500.144H396.551V502.896C396.551 505.92 395.287 508.848 393.175 510.144L392.343 509.136C394.327 507.968 395.511 505.376 395.511 502.896V500.144ZM395.767 500.144H396.791V502.848C396.791 505.168 397.879 507.632 399.783 508.784L399.015 509.824C396.935 508.544 395.767 505.664 395.767 502.848V500.144ZM403.527 498.784H404.807V513.248H403.527V498.784ZM400.599 499.088H401.847V512.528H400.599V499.088ZM417.734 498.784H419.062V513.248H417.734V498.784ZM407.558 501.12H416.23V502.192H407.558V501.12ZM411.91 503.376C413.99 503.376 415.494 504.752 415.494 506.704C415.494 508.656 413.99 510.032 411.91 510.032C409.83 510.032 408.342 508.656 408.342 506.704C408.342 504.752 409.83 503.376 411.91 503.376ZM411.91 504.48C410.582 504.48 409.606 505.392 409.606 506.704C409.606 508 410.582 508.928 411.91 508.928C413.238 508.928 414.214 508 414.214 506.704C414.214 505.392 413.238 504.48 411.91 504.48ZM411.222 498.928H412.55V501.776H411.222V498.928ZM426.456 510.304H439.56V511.408H426.456V510.304ZM432.312 506.848H433.64V510.624H432.312V506.848ZM427.992 499.808H429.304V502.384H436.68V499.808H437.992V507.2H427.992V499.808ZM429.304 503.456V506.112H436.68V503.456H429.304ZM451.703 498.784H453.031V513.248H451.703V498.784ZM447.463 500.336H448.775C448.775 504.528 446.887 508.192 442.055 510.56L441.351 509.488C445.527 507.472 447.463 504.4 447.463 500.56V500.336ZM442.007 500.336H448.039V501.424H442.007V500.336Z" fill="#F5F5F5"/>
<mask id="path-12-inside-3_6036_164056" fill="white">
<path d="M797 395C797 390.582 800.582 387 805 387H1229C1233.42 387 1237 390.582 1237 395V542C1237 546.418 1233.42 550 1229 550H805C800.582 550 797 546.418 797 542V395Z"/>
</mask>
<path d="M797 395C797 390.582 800.582 387 805 387H1229C1233.42 387 1237 390.582 1237 395V542C1237 546.418 1233.42 550 1229 550H805C800.582 550 797 546.418 797 542V395Z" fill="white"/>
<path d="M805 388H1229V386H805V388ZM1236 395V542H1238V395H1236ZM1229 549H805V551H1229V549ZM798 542V395H796V542H798ZM805 549C801.134 549 798 545.866 798 542H796C796 546.971 800.029 551 805 551V549ZM1236 542C1236 545.866 1232.87 549 1229 549V551C1233.97 551 1238 546.971 1238 542H1236ZM1229 388C1232.87 388 1236 391.134 1236 395H1238C1238 390.029 1233.97 386 1229 386V388ZM805 386C800.029 386 796 390.029 796 395H798C798 391.134 801.134 388 805 388V386Z" fill="#D9D9D9" mask="url(#path-12-inside-3_6036_164056)"/>
<path d="M837 432.333V427M837 421.667H837.013M850.333 427C850.333 434.364 844.364 440.333 837 440.333C829.636 440.333 823.667 434.364 823.667 427C823.667 419.636 829.636 413.667 837 413.667C844.364 413.667 850.333 419.636 850.333 427Z" stroke="#1E1E1E" stroke-width="3" stroke-linecap="round" stroke-linejoin="round"/>
<path d="M882.952 415.616H885.544V418.856C885.544 424.352 883.624 429.512 879.424 431.576L877.504 429.008C881.248 427.256 882.952 422.984 882.952 418.856V415.616ZM883.6 415.616H886.144V418.856C886.144 422.84 887.728 426.896 891.28 428.624L889.36 431.168C885.352 429.128 883.6 424.184 883.6 418.856V415.616ZM892.168 413.912H895.384V436.136H892.168V413.912ZM894.664 422.456H898.6V425.12H894.664V422.456ZM904.958 416.384H907.598V418.256C907.598 422.456 905.558 426.248 901.286 427.64L899.654 425.144C903.35 423.944 904.958 421.064 904.958 418.256V416.384ZM905.606 416.384H908.222V418.256C908.222 420.896 909.806 423.608 913.43 424.76L911.798 427.232C907.622 425.912 905.606 422.288 905.606 418.256V416.384ZM900.494 415.496H912.59V418.016H900.494V415.496ZM914.822 413.936H918.038V429.968H914.822V413.936ZM903.23 433.208H918.59V435.752H903.23V433.208ZM903.23 428.528H906.422V434.48H903.23V428.528ZM931.861 417.152H934.261V417.44C934.261 419.96 932.173 422 928.045 422.48L927.013 420.224C930.229 419.888 931.861 418.712 931.861 417.44V417.152ZM932.653 417.152H935.029V417.44C935.029 418.664 936.685 419.744 939.781 420.056L938.749 422.336C934.717 421.856 932.653 419.888 932.653 417.44V417.152ZM927.565 415.424H939.301V417.704H927.565V415.424ZM931.861 421.712H935.053V424.64H931.861V421.712ZM931.861 413.84H935.029V416.672H931.861V413.84ZM929.317 426.92H944.269V432.488H932.509V434.696H929.341V430.328H941.125V429.224H929.317V426.92ZM929.341 433.664H945.037V435.992H929.341V433.664ZM941.077 413.912H944.269V426.104H941.077V413.912ZM943.141 418.616H947.053V421.208H943.141V418.616ZM926.893 425.864L926.557 423.512C930.493 423.512 935.653 423.488 939.997 422.96L940.237 425.096C935.725 425.816 930.757 425.864 926.893 425.864ZM958.068 416.816H964.644V419.36H958.068V416.816ZM958.068 421.736H964.644V424.304H958.068V421.736ZM954.372 415.088C957.684 415.088 960.228 417.392 960.228 420.536C960.228 423.68 957.684 425.984 954.372 425.984C951.036 425.984 948.492 423.68 948.492 420.536C948.492 417.392 951.036 415.088 954.372 415.088ZM954.372 417.8C952.74 417.8 951.54 418.784 951.54 420.536C951.54 422.264 952.74 423.296 954.372 423.296C956.004 423.296 957.204 422.264 957.204 420.536C957.204 418.784 956.004 417.8 954.372 417.8ZM963.636 413.912H966.828V426.92H963.636V413.912ZM959.292 427.376C963.972 427.376 966.9 429.008 966.9 431.768C966.9 434.528 963.972 436.136 959.292 436.136C954.612 436.136 951.684 434.528 951.684 431.768C951.684 429.008 954.612 427.376 959.292 427.376ZM959.292 429.848C956.388 429.848 954.828 430.472 954.828 431.768C954.828 433.064 956.388 433.688 959.292 433.688C962.22 433.688 963.756 433.064 963.756 431.768C963.756 430.472 962.22 429.848 959.292 429.848ZM975.323 431.096H995.435V433.688H975.323V431.096ZM983.747 426.896H986.939V432.152H983.747V426.896ZM977.579 415.352H993.179V422.744H980.795V426.488H977.627V420.248H990.011V417.872H977.579V415.352ZM977.627 425.216H993.683V427.784H977.627V425.216ZM998.961 415.952H1013.05V418.472H998.961V415.952ZM996.921 430.64H1017.01V433.232H996.921V430.64ZM1011.37 415.952H1014.54V418.592C1014.54 421.712 1014.54 424.736 1013.74 429.296L1010.55 429.032C1011.37 424.76 1011.37 421.592 1011.37 418.592V415.952ZM1024.62 414.896H1027.78V417.512H1032.13V414.896H1035.3V424.616H1024.62V414.896ZM1027.78 419.912V422.12H1032.13V419.912H1027.78ZM1038.27 413.912H1041.46V425.192H1038.27V413.912ZM1040.17 418.184H1044.39V420.776H1040.17V418.184ZM1026.78 426.056H1041.46V432.104H1029.99V434.744H1026.82V429.824H1038.32V428.504H1026.78V426.056ZM1026.82 433.52H1042.11V435.992H1026.82V433.52ZM1060.97 413.912H1064.17V430.28H1060.97V413.912ZM1054.06 415.568H1057.45C1057.45 421.592 1053.63 425.984 1047.17 427.976L1045.85 425.456C1051.01 423.824 1054.06 420.776 1054.06 417.056V415.568ZM1047.03 415.568H1056.05V418.136H1047.03V415.568ZM1056.22 418.16H1061.43V420.728H1056.22V418.16ZM1056.01 423.176H1061.26V425.72H1056.01V423.176ZM1049.6 433.208H1064.72V435.752H1049.6V433.208ZM1049.6 428.696H1052.81V434.84H1049.6V428.696Z" fill="#1E1E1E"/>
<path d="M878.504 452.6H879.816V454.888H883.736V452.6H885.032V459.368H878.504V452.6ZM879.816 455.944V458.296H883.736V455.944H879.816ZM884.664 455.432H888.76V456.536H884.664V455.432ZM888.36 451.784H889.688V460.168H888.36V451.784ZM880.312 460.904H889.688V466.056H880.312V460.904ZM888.392 461.96H881.608V464.984H888.392V461.96ZM903.431 451.784H904.695V460.936H903.431V451.784ZM901.079 455.704H903.815V456.808H901.079V455.704ZM900.343 452.072H901.591V460.424H900.343V452.072ZM892.439 453.512H899.767V454.568H892.439V453.512ZM896.119 455.304C897.927 455.304 899.191 456.296 899.191 457.784C899.191 459.288 897.927 460.264 896.119 460.264C894.295 460.264 893.031 459.288 893.031 457.784C893.031 456.296 894.295 455.304 896.119 455.304ZM896.119 456.296C894.983 456.296 894.215 456.888 894.215 457.784C894.215 458.696 894.983 459.272 896.119 459.272C897.239 459.272 898.007 458.696 898.007 457.784C898.007 456.888 897.239 456.296 896.119 456.296ZM895.463 451.896H896.759V454.104H895.463V451.896ZM899.959 461.192C902.967 461.192 904.775 462.088 904.775 463.704C904.775 465.304 902.967 466.216 899.959 466.216C896.919 466.216 895.127 465.304 895.127 463.704C895.127 462.088 896.919 461.192 899.959 461.192ZM899.959 462.216C897.735 462.216 896.439 462.744 896.439 463.704C896.439 464.664 897.735 465.208 899.959 465.208C902.151 465.208 903.463 464.664 903.463 463.704C903.463 462.744 902.151 462.216 899.959 462.216ZM915.546 453.032H916.634V455.624C916.634 458.952 914.842 462.04 912.474 463.24L911.658 462.152C913.802 461.128 915.546 458.36 915.546 455.624V453.032ZM915.77 453.032H916.858V455.624C916.858 458.264 918.586 460.92 920.73 461.912L919.93 462.968C917.578 461.816 915.77 458.84 915.77 455.624V453.032ZM922.234 451.768H923.562V466.264H922.234V451.768ZM936.344 451.784H937.672V462.36H936.344V451.784ZM937.256 456.168H939.816V457.272H937.256V456.168ZM932.392 452.904H933.8C933.8 456.648 931.176 459.384 927.032 460.712L926.456 459.624C930.104 458.504 932.392 456.264 932.392 453.48V452.904ZM927.048 452.904H933.064V453.992H927.048V452.904ZM928.648 464.84H938.312V465.928H928.648V464.84ZM928.648 461.288H929.976V465.272H928.648V461.288ZM952.167 451.784H953.447V466.248H952.167V451.784ZM949.719 457.576H952.503V458.68H949.719V457.576ZM948.887 452.104H950.135V465.512H948.887V452.104ZM941.687 461.576H942.631C944.743 461.576 946.183 461.496 947.863 461.144L947.991 462.248C946.263 462.616 944.807 462.68 942.631 462.68H941.687V461.576ZM941.687 453.544H947.063V454.632H942.999V462.072H941.687V453.544ZM963.93 453.032H965.018V455.624C965.018 458.824 963.29 461.944 961.002 463.16L960.186 462.104C962.282 461.048 963.93 458.264 963.93 455.624V453.032ZM964.17 453.032H965.242V455.624C965.242 458.168 966.858 460.808 968.906 461.832L968.09 462.888C965.85 461.688 964.17 458.728 964.17 455.624V453.032ZM970.17 451.784H971.514V466.248H970.17V451.784ZM971.194 457.64H973.882V458.76H971.194V457.64ZM978.953 453.368H980.057V454.84C980.057 457.496 978.424 459.72 975.993 460.6L975.305 459.544C977.481 458.776 978.953 456.904 978.953 454.84V453.368ZM979.209 453.368H980.313V454.84C980.313 456.792 981.817 458.552 983.961 459.272L983.273 460.312C980.873 459.496 979.209 457.384 979.209 454.84V453.368ZM975.657 452.984H983.577V454.056H975.657V452.984ZM985.625 451.8H986.969V462.376H985.625V451.8ZM977.673 464.84H987.401V465.928H977.673V464.84ZM977.673 461.384H978.985V465.32H977.673V461.384ZM996.359 452.024C999.543 452.024 1001.45 452.92 1001.45 454.536C1001.45 456.152 999.543 457.048 996.359 457.048C993.159 457.048 991.271 456.152 991.271 454.536C991.271 452.92 993.159 452.024 996.359 452.024ZM996.359 453.032C993.991 453.032 992.631 453.576 992.631 454.536C992.631 455.496 993.991 456.04 996.359 456.04C998.711 456.04 1000.07 455.496 1000.07 454.536C1000.07 453.576 998.711 453.032 996.359 453.032ZM989.815 458.008H1002.89V459.08H989.815V458.008ZM991.399 460.312H1001.22V463.576H992.743V465.336H991.431V462.616H999.911V461.336H991.399V460.312ZM991.431 465.048H1001.66V466.088H991.431V465.048ZM1012.91 453.768H1013.91V453.976C1013.91 455.736 1012.27 457.096 1009.88 457.512L1009.42 456.552C1011.4 456.216 1012.91 455.208 1012.91 453.976V453.768ZM1013.19 453.768H1014.2V453.976C1014.2 455.144 1015.72 456.088 1017.67 456.408L1017.21 457.384C1014.86 456.968 1013.19 455.672 1013.19 453.976V453.768ZM1009.74 453H1017.35V453.992H1009.74V453ZM1012.89 456.872H1014.22V458.92H1012.89V456.872ZM1012.89 451.752H1014.2V453.48H1012.89V451.752ZM1010.89 460.616H1020.25V463.768H1012.22V465.528H1010.92V462.808H1018.95V461.624H1010.89V460.616ZM1010.92 465.08H1020.81V466.088H1010.92V465.08ZM1018.92 451.784H1020.25V459.992H1018.92V451.784ZM1019.69 455.24H1022.36V456.344H1019.69V455.24ZM1009.18 459.528L1009.02 458.488C1011.61 458.488 1015.1 458.472 1018.03 458.056L1018.14 458.984C1015.11 459.496 1011.72 459.528 1009.18 459.528ZM1030.34 453.864H1034.76V454.952H1030.34V453.864ZM1030.34 457.192H1034.76V458.296H1030.34V457.192ZM1027.7 452.632C1029.83 452.632 1031.43 454.072 1031.43 456.072C1031.43 458.088 1029.83 459.512 1027.7 459.512C1025.56 459.512 1023.98 458.088 1023.98 456.072C1023.98 454.072 1025.56 452.632 1027.7 452.632ZM1027.7 453.768C1026.3 453.768 1025.26 454.712 1025.26 456.072C1025.26 457.432 1026.3 458.376 1027.7 458.376C1029.11 458.376 1030.17 457.432 1030.17 456.072C1030.17 454.712 1029.11 453.768 1027.7 453.768ZM1034.33 451.784H1035.66V460.344H1034.33V451.784ZM1030.9 460.68C1033.88 460.68 1035.72 461.704 1035.72 463.448C1035.72 465.208 1033.88 466.216 1030.9 466.216C1027.91 466.216 1026.07 465.208 1026.07 463.448C1026.07 461.704 1027.91 460.68 1030.9 460.68ZM1030.9 461.736C1028.71 461.736 1027.38 462.376 1027.38 463.448C1027.38 464.536 1028.71 465.176 1030.9 465.176C1033.08 465.176 1034.41 464.536 1034.41 463.448C1034.41 462.376 1033.08 461.736 1030.9 461.736ZM1048.38 451.8H1049.7V462.648H1048.38V451.8ZM1049.29 456.536H1051.85V457.656H1049.29V456.536ZM1038.52 453.544H1047.06V454.616H1038.52V453.544ZM1042.79 455.416C1044.84 455.416 1046.25 456.488 1046.25 458.12C1046.25 459.736 1044.84 460.808 1042.79 460.808C1040.73 460.808 1039.32 459.736 1039.32 458.12C1039.32 456.488 1040.73 455.416 1042.79 455.416ZM1042.79 456.456C1041.48 456.456 1040.58 457.112 1040.58 458.12C1040.58 459.112 1041.48 459.768 1042.79 459.768C1044.09 459.768 1044.98 459.112 1044.98 458.12C1044.98 457.112 1044.09 456.456 1042.79 456.456ZM1042.12 451.784H1043.45V454.104H1042.12V451.784ZM1040.7 464.84H1050.36V465.928H1040.7V464.84ZM1040.7 461.784H1042.02V465.304H1040.7V461.784ZM1057.71 463.368H1070.81V464.472H1057.71V463.368ZM1063.56 460.264H1064.89V463.832H1063.56V460.264ZM1059.29 452.856H1069.19V457.24H1060.65V460.136H1059.34V456.168H1067.88V453.928H1059.29V452.856ZM1059.34 459.576H1069.53V460.664H1059.34V459.576ZM1073.83 453.32H1083.15V454.392H1073.83V453.32ZM1072.43 463.032H1085.5V464.136H1072.43V463.032ZM1082.44 453.32H1083.74V454.76C1083.74 456.616 1083.74 458.68 1083.19 461.8L1081.87 461.672C1082.44 458.712 1082.44 456.552 1082.44 454.76V453.32ZM1096.92 451.768H1098.26V466.248H1096.92V451.768ZM1097.9 457.64H1100.57V458.744H1097.9V457.64ZM1093.22 453.336H1094.52C1094.52 457.448 1092.63 461.16 1087.96 463.512L1087.22 462.488C1091.22 460.456 1093.22 457.368 1093.22 453.544V453.336ZM1087.9 453.336H1093.91V454.424H1087.9V453.336ZM1112.03 453.144H1113.21V453.576C1113.21 456.024 1110.6 457.752 1107.64 458.2L1107.15 457.128C1109.71 456.792 1112.03 455.352 1112.03 453.576V453.144ZM1112.59 453.144H1113.75V453.576C1113.75 455.336 1116.09 456.792 1118.65 457.128L1118.14 458.2C1115.19 457.752 1112.59 456.024 1112.59 453.576V453.144ZM1107.55 452.488H1118.25V453.56H1107.55V452.488ZM1108.04 464.84H1117.98V465.928H1108.04V464.84ZM1108.04 461.848H1109.37V465.272H1108.04V461.848ZM1106.35 459.592H1119.47V460.664H1106.35V459.592ZM1112.22 457.192H1113.53V460.024H1112.22V457.192ZM1132.14 451.784H1133.4V466.248H1132.14V451.784ZM1129.85 457.608H1132.63V458.728H1129.85V457.608ZM1128.99 452.088H1130.23V465.528H1128.99V452.088ZM1124.06 454.024H1125.1V455.688C1125.1 459.16 1123.96 461.944 1121.74 463.272L1120.92 462.248C1123 461.096 1124.06 458.632 1124.06 455.688V454.024ZM1124.3 454.024H1125.34V455.688C1125.34 458.344 1126.41 460.696 1128.44 461.736L1127.66 462.76C1125.45 461.544 1124.3 458.872 1124.3 455.688V454.024ZM1121.26 453.48H1127.98V454.584H1121.26V453.48ZM1145.69 451.784H1147.02V460.184H1145.69V451.784ZM1146.44 455.464H1149.16V456.584H1146.44V455.464ZM1137.93 460.824H1139.22V462.36H1145.7V460.824H1147.02V466.056H1137.93V460.824ZM1139.22 463.384V464.984H1145.7V463.384H1139.22ZM1135.83 453.256H1144.38V454.344H1135.83V453.256ZM1140.1 455C1142.17 455 1143.56 456.008 1143.56 457.544C1143.56 459.08 1142.17 460.088 1140.1 460.088C1138.02 460.088 1136.63 459.08 1136.63 457.544C1136.63 456.008 1138.02 455 1140.1 455ZM1140.1 456.008C1138.78 456.008 1137.9 456.616 1137.9 457.544C1137.9 458.472 1138.78 459.08 1140.1 459.08C1141.4 459.08 1142.3 458.472 1142.3 457.544C1142.3 456.616 1141.4 456.008 1140.1 456.008ZM1139.43 451.64H1140.76V453.848H1139.43V451.64ZM1161.03 451.784H1162.36V466.248H1161.03V451.784ZM1151.43 453.192H1152.74V462.152H1151.43V453.192ZM1151.43 461.368H1152.61C1154.81 461.368 1157.09 461.208 1159.54 460.696L1159.7 461.832C1157.19 462.344 1154.9 462.52 1152.61 462.52H1151.43V461.368ZM1175.01 451.768H1176.36V466.264H1175.01V451.768ZM1176.04 457.48H1178.73V458.6H1176.04V457.48ZM1165.85 461.544H1166.98C1169.65 461.544 1171.53 461.448 1173.69 461.048L1173.83 462.168C1171.61 462.584 1169.7 462.664 1166.98 462.664H1165.85V461.544ZM1165.85 453.176H1172.57V454.264H1167.16V462.04H1165.85V453.176ZM1181.36 465.091C1181.08 465.091 1180.84 464.991 1180.64 464.79C1180.44 464.589 1180.34 464.348 1180.34 464.068C1180.34 463.788 1180.44 463.547 1180.64 463.347C1180.84 463.146 1181.08 463.045 1181.36 463.045C1181.64 463.045 1181.88 463.146 1182.08 463.347C1182.28 463.547 1182.38 463.788 1182.38 464.068C1182.38 464.254 1182.34 464.424 1182.24 464.58C1182.15 464.735 1182.03 464.86 1181.87 464.955C1181.72 465.045 1181.55 465.091 1181.36 465.091Z" fill="#757575"/>
<mask id="path-17-inside-4_6036_164056" fill="white">
<path d="M877 494C877 489.582 880.582 486 885 486H972C976.418 486 980 489.582 980 494V518C980 522.418 976.418 526 972 526H885C880.582 526 877 522.418 877 518V494Z"/>
</mask>
<path d="M877 494C877 489.582 880.582 486 885 486H972C976.418 486 980 489.582 980 494V518C980 522.418 976.418 526 972 526H885C880.582 526 877 522.418 877 518V494Z" fill="#2C2C2C"/>
<path d="M885 487H972V485H885V487ZM979 494V518H981V494H979ZM972 525H885V527H972V525ZM878 518V494H876V518H878ZM885 525C881.134 525 878 521.866 878 518H876C876 522.971 880.029 527 885 527V525ZM979 518C979 521.866 975.866 525 972 525V527C976.971 527 981 522.971 981 518H979ZM972 487C975.866 487 979 490.134 979 494H981C981 489.029 976.971 485 972 485V487ZM885 485C880.029 485 876 489.029 876 494H878C878 490.134 881.134 487 885 487V485Z" fill="#2C2C2C" mask="url(#path-17-inside-4_6036_164056)"/>
<path d="M893.368 500.848H894.424V503.2C894.424 506.208 892.584 509.312 890.328 510.464L889.56 509.408C891.624 508.4 893.368 505.648 893.368 503.2V500.848ZM893.608 500.848H894.664V503.2C894.664 505.488 896.296 508.064 898.392 509.056L897.64 510.112C895.352 508.976 893.608 506.064 893.608 503.2V500.848ZM890.072 500.256H897.864V501.376H890.072V500.256ZM899.576 498.784H900.92V513.248H899.576V498.784ZM900.6 504.624H903.288V505.744H900.6V504.624ZM910.215 503.952H912.983V505.056H910.215V503.952ZM907.511 500.144H908.551V502.896C908.551 505.92 907.287 508.848 905.175 510.144L904.343 509.136C906.327 507.968 907.511 505.376 907.511 502.896V500.144ZM907.767 500.144H908.791V502.848C908.791 505.168 909.879 507.632 911.783 508.784L911.015 509.824C908.935 508.544 907.767 505.664 907.767 502.848V500.144ZM915.527 498.784H916.807V513.248H915.527V498.784ZM912.599 499.088H913.847V512.528H912.599V499.088ZM929.734 498.784H931.062V513.248H929.734V498.784ZM919.558 501.12H928.23V502.192H919.558V501.12ZM923.91 503.376C925.99 503.376 927.494 504.752 927.494 506.704C927.494 508.656 925.99 510.032 923.91 510.032C921.83 510.032 920.342 508.656 920.342 506.704C920.342 504.752 921.83 503.376 923.91 503.376ZM923.91 504.48C922.582 504.48 921.606 505.392 921.606 506.704C921.606 508 922.582 508.928 923.91 508.928C925.238 508.928 926.214 508 926.214 506.704C926.214 505.392 925.238 504.48 923.91 504.48ZM923.222 498.928H924.55V501.776H923.222V498.928ZM938.456 510.304H951.56V511.408H938.456V510.304ZM944.312 506.848H945.64V510.624H944.312V506.848ZM939.992 499.808H941.304V502.384H948.68V499.808H949.992V507.2H939.992V499.808ZM941.304 503.456V506.112H948.68V503.456H941.304ZM963.703 498.784H965.031V513.248H963.703V498.784ZM959.463 500.336H960.775C960.775 504.528 958.887 508.192 954.055 510.56L953.351 509.488C957.527 507.472 959.463 504.4 959.463 500.56V500.336ZM954.007 500.336H960.039V501.424H954.007V500.336Z" fill="#F5F5F5"/>
<mask id="path-20-inside-5_6036_164056" fill="white">
<path d="M797 645C797 640.582 800.582 637 805 637H1229C1233.42 637 1237 640.582 1237 645V792C1237 796.418 1233.42 800 1229 800H805C800.582 800 797 796.418 797 792V645Z"/>
</mask>
<path d="M797 645C797 640.582 800.582 637 805 637H1229C1233.42 637 1237 640.582 1237 645V792C1237 796.418 1233.42 800 1229 800H805C800.582 800 797 796.418 797 792V645Z" fill="white"/>
<path d="M805 638H1229V636H805V638ZM1236 645V792H1238V645H1236ZM1229 799H805V801H1229V799ZM798 792V645H796V792H798ZM805 799C801.134 799 798 795.866 798 792H796C796 796.971 800.029 801 805 801V799ZM1236 792C1236 795.866 1232.87 799 1229 799V801C1233.97 801 1238 796.971 1238 792H1236ZM1229 638C1232.87 638 1236 641.134 1236 645H1238C1238 640.029 1233.97 636 1229 636V638ZM805 636C800.029 636 796 640.029 796 645H798C798 641.134 801.134 638 805 638V636Z" fill="#D9D9D9" mask="url(#path-20-inside-5_6036_164056)"/>
<path d="M837 682.333V677M837 671.667H837.013M850.333 677C850.333 684.364 844.364 690.333 837 690.333C829.636 690.333 823.667 684.364 823.667 677C823.667 669.636 829.636 663.667 837 663.667C844.364 663.667 850.333 669.636 850.333 677Z" stroke="#1E1E1E" stroke-width="3" stroke-linecap="round" stroke-linejoin="round"/>
<path d="M880.432 664.68H894.52V667.176H880.432V664.68ZM892.6 664.68H895.744V666.648C895.744 668.592 895.744 670.68 895.168 673.296L892.024 673.008C892.6 670.44 892.6 668.568 892.6 666.648V664.68ZM893.56 668.424V670.608L880.168 671.136L879.808 668.712L893.56 668.424ZM878.008 672.48H898.024V674.976H878.008V672.48ZM880.168 676.272H895.864V682.152H883.36V684.552H880.192V679.896H892.696V678.672H880.168V676.272ZM880.192 683.472H896.608V685.896H880.192V683.472ZM913.814 663.888H916.982V686.184H913.814V663.888ZM916.262 672.288H920.198V674.928H916.262V672.288ZM900.47 678.408H902.342C906.11 678.408 909.038 678.288 912.302 677.712L912.614 680.28C909.254 680.88 906.206 681.024 902.342 681.024H900.47V678.408ZM900.446 665.784H910.67V674.4H903.638V679.392H900.47V671.856H907.502V668.328H900.446V665.784ZM921.156 676.344H941.292V678.912H921.156V676.344ZM929.556 678H932.724V686.16H929.556V678ZM931.164 664.656C935.916 664.656 939.204 666.624 939.204 669.672C939.204 672.696 935.916 674.64 931.164 674.64C926.436 674.64 923.148 672.696 923.148 669.672C923.148 666.624 926.436 664.656 931.164 664.656ZM931.164 667.2C928.26 667.2 926.412 668.064 926.412 669.672C926.412 671.256 928.26 672.12 931.164 672.12C934.092 672.12 935.916 671.256 935.916 669.672C935.916 668.064 934.092 667.2 931.164 667.2ZM945.106 674.16H960.73V676.704H945.106V674.16ZM942.778 680.856H962.89V683.472H942.778V680.856ZM945.106 665.736H960.562V668.328H948.274V675.216H945.106V665.736ZM981.058 668.808H986.626V671.376H981.058V668.808ZM975.97 664.824C979.306 664.824 981.826 667.056 981.826 670.128C981.826 673.224 979.306 675.432 975.97 675.432C972.61 675.432 970.09 673.224 970.09 670.128C970.09 667.056 972.61 664.824 975.97 664.824ZM975.97 667.488C974.338 667.488 973.138 668.472 973.138 670.128C973.138 671.784 974.338 672.792 975.97 672.792C977.602 672.792 978.778 671.784 978.778 670.128C978.778 668.472 977.602 667.488 975.97 667.488ZM985.234 663.912H988.426V675.864H985.234V663.912ZM973.666 676.824H976.834V678.936H985.258V676.824H988.426V685.896H973.666V676.824ZM976.834 681.384V683.352H985.258V681.384H976.834ZM991.448 681.096H1011.56V683.688H991.448V681.096ZM999.872 676.896H1003.06V682.152H999.872V676.896ZM993.704 665.352H1009.3V672.744H996.92V676.488H993.752V670.248H1006.14V667.872H993.704V665.352ZM993.752 675.216H1009.81V677.784H993.752V675.216ZM1015.37 674.16H1031V676.704H1015.37V674.16ZM1013.05 680.856H1033.16V683.472H1013.05V680.856ZM1015.37 665.736H1030.83V668.328H1018.54V675.216H1015.37V665.736ZM1040.09 676.608H1060.18V679.056H1040.09V676.608ZM1042.52 683.28H1057.93V685.752H1042.52V683.28ZM1042.52 680.232H1045.71V684.792H1042.52V680.232ZM1041.05 665.736H1059.15V668.136H1041.05V665.736ZM1050.15 668.808C1054.88 668.808 1057.59 669.984 1057.59 672.216C1057.59 674.424 1054.88 675.624 1050.15 675.624C1045.42 675.624 1042.71 674.424 1042.71 672.216C1042.71 669.984 1045.42 668.808 1050.15 668.808ZM1050.15 671.04C1047.27 671.04 1045.97 671.4 1045.97 672.216C1045.97 673.056 1047.27 673.392 1050.15 673.392C1053.01 673.392 1054.33 673.056 1054.33 672.216C1054.33 671.4 1053.01 671.04 1050.15 671.04ZM1048.54 663.816H1051.73V667.248H1048.54V663.816ZM1066.83 666.12H1069.42V667.536C1069.42 671.712 1067.45 675.576 1063.18 676.968L1061.57 674.448C1065.24 673.248 1066.83 670.32 1066.83 667.536V666.12ZM1067.5 666.12H1070.07V667.536C1070.07 670.128 1071.58 672.864 1075.08 674.04L1073.52 676.536C1069.4 675.168 1067.5 671.472 1067.5 667.536V666.12ZM1073.79 669.216H1078.01V671.808H1073.79V669.216ZM1062.44 665.136H1074.39V667.656H1062.44V665.136ZM1065.15 678.144H1080.29V686.136H1077.1V680.688H1065.15V678.144ZM1077.1 663.912H1080.29V677.136H1077.1V663.912ZM1089.41 664.896H1092.58V667.512H1096.92V664.896H1100.09V674.616H1089.41V664.896ZM1092.58 669.912V672.12H1096.92V669.912H1092.58ZM1103.07 663.912H1106.26V675.192H1103.07V663.912ZM1104.96 668.184H1109.19V670.776H1104.96V668.184ZM1091.57 676.056H1106.26V682.104H1094.79V684.744H1091.62V679.824H1103.11V678.504H1091.57V676.056ZM1091.62 683.52H1106.91V685.992H1091.62V683.52ZM1125.77 663.912H1128.96V680.28H1125.77V663.912ZM1118.86 665.568H1122.24C1122.24 671.592 1118.42 675.984 1111.97 677.976L1110.65 675.456C1115.81 673.824 1118.86 670.776 1118.86 667.056V665.568ZM1111.82 665.568H1120.85V668.136H1111.82V665.568ZM1121.02 668.16H1126.22V670.728H1121.02V668.16ZM1120.8 673.176H1126.06V675.72H1120.8V673.176ZM1114.39 683.208H1129.51V685.752H1114.39V683.208ZM1114.39 678.696H1117.61V684.84H1114.39V678.696Z" fill="#1E1E1E"/>
<path d="M878.409 703.364H880.091L884.045 713.023H884.182L888.136 703.364H889.818V715H888.5V706.159H888.386L884.75 715H883.477L879.841 706.159H879.727V715H878.409V703.364ZM891.643 703.364H893.257L896.484 708.795H896.621L899.848 703.364H901.462L897.257 710.205V715H895.848V710.205L891.643 703.364ZM903.284 715V703.364H907.352C908.163 703.364 908.831 703.504 909.358 703.784C909.884 704.061 910.277 704.434 910.534 704.903C910.792 705.369 910.92 705.886 910.92 706.455C910.92 706.955 910.831 707.367 910.653 707.693C910.479 708.019 910.248 708.277 909.96 708.466C909.676 708.655 909.367 708.795 909.034 708.886V709C909.39 709.023 909.748 709.148 910.108 709.375C910.468 709.602 910.769 709.928 911.011 710.352C911.254 710.777 911.375 711.295 911.375 711.909C911.375 712.492 911.242 713.017 910.977 713.483C910.712 713.949 910.294 714.318 909.722 714.591C909.15 714.864 908.405 715 907.489 715H903.284ZM904.693 713.75H907.489C908.409 713.75 909.063 713.572 909.449 713.216C909.839 712.856 910.034 712.42 910.034 711.909C910.034 711.515 909.934 711.152 909.733 710.818C909.532 710.481 909.246 710.212 908.875 710.011C908.504 709.807 908.064 709.705 907.557 709.705H904.693V713.75ZM904.693 708.477H907.307C907.731 708.477 908.114 708.394 908.455 708.227C908.799 708.061 909.072 707.826 909.273 707.523C909.477 707.22 909.58 706.864 909.58 706.455C909.58 705.943 909.402 705.509 909.045 705.153C908.689 704.794 908.125 704.614 907.352 704.614H904.693V708.477ZM923.509 709.182C923.509 710.409 923.287 711.47 922.844 712.364C922.401 713.258 921.793 713.947 921.02 714.432C920.247 714.917 919.365 715.159 918.372 715.159C917.38 715.159 916.497 714.917 915.724 714.432C914.952 713.947 914.344 713.258 913.901 712.364C913.457 711.47 913.236 710.409 913.236 709.182C913.236 707.955 913.457 706.894 913.901 706C914.344 705.106 914.952 704.417 915.724 703.932C916.497 703.447 917.38 703.205 918.372 703.205C919.365 703.205 920.247 703.447 921.02 703.932C921.793 704.417 922.401 705.106 922.844 706C923.287 706.894 923.509 707.955 923.509 709.182ZM922.145 709.182C922.145 708.174 921.976 707.324 921.639 706.631C921.306 705.938 920.853 705.413 920.281 705.057C919.713 704.701 919.077 704.523 918.372 704.523C917.668 704.523 917.029 704.701 916.457 705.057C915.889 705.413 915.437 705.938 915.099 706.631C914.766 707.324 914.599 708.174 914.599 709.182C914.599 710.189 914.766 711.04 915.099 711.733C915.437 712.426 915.889 712.951 916.457 713.307C917.029 713.663 917.668 713.841 918.372 713.841C919.077 713.841 919.713 713.663 920.281 713.307C920.853 712.951 921.306 712.426 921.639 711.733C921.976 711.04 922.145 710.189 922.145 709.182ZM926.372 703.364L929.372 708.205H929.463L932.463 703.364H934.122L930.463 709.182L934.122 715H932.463L929.463 710.25H929.372L926.372 715H924.713L928.463 709.182L924.713 703.364H926.372ZM941.203 707.4H943.939V708.504H941.203V707.4ZM946.355 701.784H947.635V716.248H946.355V701.784ZM943.491 702.088H944.755V715.528H943.491V702.088ZM938.595 702.984C940.467 702.984 941.683 704.92 941.683 708.024C941.683 711.128 940.467 713.064 938.595 713.064C936.723 713.064 935.523 711.128 935.523 708.024C935.523 704.92 936.723 702.984 938.595 702.984ZM938.595 704.216C937.459 704.216 936.739 705.688 936.739 708.024C936.739 710.36 937.459 711.832 938.595 711.832C939.747 711.832 940.467 710.36 940.467 708.024C940.467 705.688 939.747 704.216 938.595 704.216ZM961.83 705.224H965.718V706.328H961.83V705.224ZM958.502 702.44C960.662 702.44 962.23 703.816 962.23 705.8C962.23 707.784 960.662 709.144 958.502 709.144C956.342 709.144 954.774 707.784 954.774 705.8C954.774 703.816 956.342 702.44 958.502 702.44ZM958.502 703.56C957.078 703.56 956.054 704.472 956.054 705.8C956.054 707.112 957.078 708.04 958.502 708.04C959.926 708.04 960.95 707.112 960.95 705.8C960.95 704.472 959.926 703.56 958.502 703.56ZM965.126 701.784H966.454V709.544H965.126V701.784ZM957.19 710.264H958.518V712.088H965.142V710.264H966.454V716.056H957.19V710.264ZM958.518 713.144V714.984H965.142V713.144H958.518ZM969.284 713.368H982.388V714.472H969.284V713.368ZM975.14 710.264H976.468V713.832H975.14V710.264ZM970.868 702.856H980.772V707.24H972.228V710.136H970.916V706.168H979.46V703.928H970.868V702.856ZM970.916 709.576H981.108V710.664H970.916V709.576ZM985.651 708.712H995.587V709.8H985.651V708.712ZM984.003 713.192H997.107V714.296H984.003V713.192ZM985.651 703.112H995.443V704.216H986.979V709.192H985.651V703.112ZM1008.61 701.8H1009.94V712.648H1008.61V701.8ZM1009.52 706.536H1012.08V707.656H1009.52V706.536ZM998.754 703.544H1007.3V704.616H998.754V703.544ZM1003.03 705.416C1005.07 705.416 1006.48 706.488 1006.48 708.12C1006.48 709.736 1005.07 710.808 1003.03 710.808C1000.96 710.808 999.554 709.736 999.554 708.12C999.554 706.488 1000.96 705.416 1003.03 705.416ZM1003.03 706.456C1001.71 706.456 1000.82 707.112 1000.82 708.12C1000.82 709.112 1001.71 709.768 1003.03 709.768C1004.32 709.768 1005.22 709.112 1005.22 708.12C1005.22 707.112 1004.32 706.456 1003.03 706.456ZM1002.35 701.784H1003.68V704.104H1002.35V701.784ZM1000.93 714.84H1010.59V715.928H1000.93V714.84ZM1000.93 711.784H1002.26V715.304H1000.93V711.784ZM1028.93 701.784H1030.21V716.248H1028.93V701.784ZM1026.58 707.64H1029.35V708.728H1026.58V707.64ZM1023.03 703.512H1024.31C1024.31 707.288 1023.17 710.84 1018.79 713.288L1018.04 712.312C1021.91 710.2 1023.03 707.16 1023.03 703.736V703.512ZM1018.74 703.512H1023.52V704.616H1018.74V703.512ZM1025.73 702.136H1027V715.544H1025.73V702.136ZM1022.87 706.808V707.8L1018.21 708.28L1018.02 707.128L1022.87 706.808ZM1036.47 703.032H1037.56V705.624C1037.56 708.952 1035.76 712.04 1033.4 713.24L1032.58 712.152C1034.72 711.128 1036.47 708.36 1036.47 705.624V703.032ZM1036.69 703.032H1037.78V705.624C1037.78 708.264 1039.51 710.92 1041.65 711.912L1040.85 712.968C1038.5 711.816 1036.69 708.84 1036.69 705.624V703.032ZM1043.16 701.768H1044.48V716.264H1043.16V701.768ZM1052.05 703.336H1060.1V704.424H1052.05V703.336ZM1051.85 712.68L1051.69 711.544C1054.29 711.544 1057.8 711.512 1060.77 711.144L1060.85 712.136C1057.83 712.632 1054.39 712.68 1051.85 712.68ZM1053.61 704.152H1054.9V711.848H1053.61V704.152ZM1057.25 704.152H1058.55V711.848H1057.25V704.152ZM1061.65 701.784H1063V716.248H1061.65V701.784ZM1062.68 707.56H1065.37V708.68H1062.68V707.56ZM1070.64 702.312C1072.8 702.312 1074.39 703.624 1074.39 705.528C1074.39 707.416 1072.8 708.728 1070.64 708.728C1068.5 708.728 1066.92 707.416 1066.92 705.528C1066.92 703.624 1068.5 702.312 1070.64 702.312ZM1070.64 703.4C1069.25 703.4 1068.2 704.28 1068.2 705.528C1068.2 706.776 1069.25 707.64 1070.64 707.64C1072.05 707.64 1073.09 706.776 1073.09 705.528C1073.09 704.28 1072.05 703.4 1070.64 703.4ZM1077.11 701.784H1078.45V709.192H1077.11V701.784ZM1069.09 709.896H1078.45V713.416H1070.42V715.592H1069.12V712.424H1077.14V710.968H1069.09V709.896ZM1069.12 715H1078.93V716.056H1069.12V715ZM1091.81 701.768H1093.14V716.264H1091.81V701.768ZM1085.51 702.888C1087.65 702.888 1089.19 704.856 1089.19 707.928C1089.19 711.016 1087.65 712.984 1085.51 712.984C1083.38 712.984 1081.84 711.016 1081.84 707.928C1081.84 704.856 1083.38 702.888 1085.51 702.888ZM1085.51 704.088C1084.1 704.088 1083.11 705.592 1083.11 707.928C1083.11 710.28 1084.1 711.816 1085.51 711.816C1086.93 711.816 1087.91 710.28 1087.91 707.928C1087.91 705.592 1086.93 704.088 1085.51 704.088ZM1106.2 703.144H1107.38V703.576C1107.38 706.024 1104.77 707.752 1101.81 708.2L1101.32 707.128C1103.88 706.792 1106.2 705.352 1106.2 703.576V703.144ZM1106.76 703.144H1107.93V703.576C1107.93 705.336 1110.26 706.792 1112.82 707.128L1112.31 708.2C1109.37 707.752 1106.76 706.024 1106.76 703.576V703.144ZM1101.72 702.488H1112.42V703.56H1101.72V702.488ZM1102.21 714.84H1112.15V715.928H1102.21V714.84ZM1102.21 711.848H1103.54V715.272H1102.21V711.848ZM1100.52 709.592H1113.64V710.664H1100.52V709.592ZM1106.39 707.192H1107.7V710.024H1106.39V707.192ZM1126.31 701.784H1127.57V716.248H1126.31V701.784ZM1124.02 707.608H1126.81V708.728H1124.02V707.608ZM1123.16 702.088H1124.41V715.528H1123.16V702.088ZM1118.23 704.024H1119.27V705.688C1119.27 709.16 1118.13 711.944 1115.91 713.272L1115.09 712.248C1117.17 711.096 1118.23 708.632 1118.23 705.688V704.024ZM1118.47 704.024H1119.51V705.688C1119.51 708.344 1120.58 710.696 1122.61 711.736L1121.83 712.76C1119.62 711.544 1118.47 708.872 1118.47 705.688V704.024ZM1115.43 703.48H1122.15V704.584H1115.43V703.48ZM1139.86 701.784H1141.19V710.184H1139.86V701.784ZM1140.61 705.464H1143.33V706.584H1140.61V705.464ZM1132.1 710.824H1133.4V712.36H1139.88V710.824H1141.19V716.056H1132.1V710.824ZM1133.4 713.384V714.984H1139.88V713.384H1133.4ZM1130 703.256H1138.55V704.344H1130V703.256ZM1134.28 705C1136.34 705 1137.73 706.008 1137.73 707.544C1137.73 709.08 1136.34 710.088 1134.28 710.088C1132.2 710.088 1130.8 709.08 1130.8 707.544C1130.8 706.008 1132.2 705 1134.28 705ZM1134.28 706.008C1132.95 706.008 1132.07 706.616 1132.07 707.544C1132.07 708.472 1132.95 709.08 1134.28 709.08C1135.57 709.08 1136.47 708.472 1136.47 707.544C1136.47 706.616 1135.57 706.008 1134.28 706.008ZM1133.6 701.64H1134.93V703.848H1133.6V701.64ZM1155.2 701.784H1156.53V716.248H1155.2V701.784ZM1145.6 703.192H1146.91V712.152H1145.6V703.192ZM1145.6 711.368H1146.79C1148.98 711.368 1151.27 711.208 1153.71 710.696L1153.87 711.832C1151.36 712.344 1149.07 712.52 1146.79 712.52H1145.6V711.368ZM1169.19 701.768H1170.53V716.264H1169.19V701.768ZM1170.21 707.48H1172.9V708.6H1170.21V707.48ZM1160.02 711.544H1161.15C1163.83 711.544 1165.7 711.448 1167.86 711.048L1168 712.168C1165.78 712.584 1163.87 712.664 1161.15 712.664H1160.02V711.544ZM1160.02 703.176H1166.74V704.264H1161.33V712.04H1160.02V703.176ZM1175.53 715.091C1175.25 715.091 1175.01 714.991 1174.81 714.79C1174.61 714.589 1174.51 714.348 1174.51 714.068C1174.51 713.788 1174.61 713.547 1174.81 713.347C1175.01 713.146 1175.25 713.045 1175.53 713.045C1175.81 713.045 1176.05 713.146 1176.25 713.347C1176.46 713.547 1176.56 713.788 1176.56 714.068C1176.56 714.254 1176.51 714.424 1176.41 714.58C1176.32 714.735 1176.2 714.86 1176.04 714.955C1175.89 715.045 1175.72 715.091 1175.53 715.091Z" fill="#757575"/>
<mask id="path-25-inside-6_6036_164056" fill="white">
<path d="M877 744C877 739.582 880.582 736 885 736H972C976.418 736 980 739.582 980 744V768C980 772.418 976.418 776 972 776H885C880.582 776 877 772.418 877 768V744Z"/>
</mask>
<path d="M877 744C877 739.582 880.582 736 885 736H972C976.418 736 980 739.582 980 744V768C980 772.418 976.418 776 972 776H885C880.582 776 877 772.418 877 768V744Z" fill="#2C2C2C"/>
<path d="M885 737H972V735H885V737ZM979 744V768H981V744H979ZM972 775H885V777H972V775ZM878 768V744H876V768H878ZM885 775C881.134 775 878 771.866 878 768H876C876 772.971 880.029 777 885 777V775ZM979 768C979 771.866 975.866 775 972 775V777C976.971 777 981 772.971 981 768H979ZM972 737C975.866 737 979 740.134 979 744H981C981 739.029 976.971 735 972 735V737ZM885 735C880.029 735 876 739.029 876 744H878C878 740.134 881.134 737 885 737V735Z" fill="#2C2C2C" mask="url(#path-25-inside-6_6036_164056)"/>
<path d="M893.368 750.848H894.424V753.2C894.424 756.208 892.584 759.312 890.328 760.464L889.56 759.408C891.624 758.4 893.368 755.648 893.368 753.2V750.848ZM893.608 750.848H894.664V753.2C894.664 755.488 896.296 758.064 898.392 759.056L897.64 760.112C895.352 758.976 893.608 756.064 893.608 753.2V750.848ZM890.072 750.256H897.864V751.376H890.072V750.256ZM899.576 748.784H900.92V763.248H899.576V748.784ZM900.6 754.624H903.288V755.744H900.6V754.624ZM910.215 753.952H912.983V755.056H910.215V753.952ZM907.511 750.144H908.551V752.896C908.551 755.92 907.287 758.848 905.175 760.144L904.343 759.136C906.327 757.968 907.511 755.376 907.511 752.896V750.144ZM907.767 750.144H908.791V752.848C908.791 755.168 909.879 757.632 911.783 758.784L911.015 759.824C908.935 758.544 907.767 755.664 907.767 752.848V750.144ZM915.527 748.784H916.807V763.248H915.527V748.784ZM912.599 749.088H913.847V762.528H912.599V749.088ZM929.734 748.784H931.062V763.248H929.734V748.784ZM919.558 751.12H928.23V752.192H919.558V751.12ZM923.91 753.376C925.99 753.376 927.494 754.752 927.494 756.704C927.494 758.656 925.99 760.032 923.91 760.032C921.83 760.032 920.342 758.656 920.342 756.704C920.342 754.752 921.83 753.376 923.91 753.376ZM923.91 754.48C922.582 754.48 921.606 755.392 921.606 756.704C921.606 758 922.582 758.928 923.91 758.928C925.238 758.928 926.214 758 926.214 756.704C926.214 755.392 925.238 754.48 923.91 754.48ZM923.222 748.928H924.55V751.776H923.222V748.928ZM938.456 760.304H951.56V761.408H938.456V760.304ZM944.312 756.848H945.64V760.624H944.312V756.848ZM939.992 749.808H941.304V752.384H948.68V749.808H949.992V757.2H939.992V749.808ZM941.304 753.456V756.112H948.68V753.456H941.304ZM963.703 748.784H965.031V763.248H963.703V748.784ZM959.463 750.336H960.775C960.775 754.528 958.887 758.192 954.055 760.56L953.351 759.488C957.527 757.472 959.463 754.4 959.463 750.56V750.336ZM954.007 750.336H960.039V751.424H954.007V750.336Z" fill="#F5F5F5"/>
<mask id="path-28-inside-7_6036_164056" fill="white">
<path d="M285 645C285 640.582 288.582 637 293 637H717C721.418 637 725 640.582 725 645V792C725 796.418 721.418 800 717 800H293C288.582 800 285 796.418 285 792V645Z"/>
</mask>
<path d="M285 645C285 640.582 288.582 637 293 637H717C721.418 637 725 640.582 725 645V792C725 796.418 721.418 800 717 800H293C288.582 800 285 796.418 285 792V645Z" fill="white"/>
<path d="M293 638H717V636H293V638ZM724 645V792H726V645H724ZM717 799H293V801H717V799ZM286 792V645H284V792H286ZM293 799C289.134 799 286 795.866 286 792H284C284 796.971 288.029 801 293 801V799ZM724 792C724 795.866 720.866 799 717 799V801C721.971 801 726 796.971 726 792H724ZM717 638C720.866 638 724 641.134 724 645H726C726 640.029 721.971 636 717 636V638ZM293 636C288.029 636 284 640.029 284 645H286C286 641.134 289.134 638 293 638V636Z" fill="#D9D9D9" mask="url(#path-28-inside-7_6036_164056)"/>
<path d="M325 682.333V677M325 671.667H325.013M338.333 677C338.333 684.364 332.364 690.333 325 690.333C317.636 690.333 311.667 684.364 311.667 677C311.667 669.636 317.636 663.667 325 663.667C332.364 663.667 338.333 669.636 338.333 677Z" stroke="#1E1E1E" stroke-width="3" stroke-linecap="round" stroke-linejoin="round"/>
<path d="M373.16 664.8C376.544 664.8 378.992 666.744 378.992 669.552C378.992 672.312 376.544 674.304 373.16 674.304C369.8 674.304 367.352 672.312 367.352 669.552C367.352 666.744 369.8 664.8 373.16 664.8ZM373.16 667.392C371.552 667.392 370.4 668.16 370.4 669.552C370.4 670.92 371.552 671.688 373.16 671.688C374.792 671.688 375.944 670.92 375.944 669.552C375.944 668.16 374.792 667.392 373.16 667.392ZM371.672 676.512H374.864V685.464H371.672V676.512ZM381.392 663.912H384.56V686.136H381.392V663.912ZM366.416 678.192L366.032 675.6C369.92 675.6 375.416 675.552 380.12 674.832L380.336 677.16C375.512 678.12 370.256 678.168 366.416 678.192ZM402.822 663.912H406.038V686.136H402.822V663.912ZM393.03 669.672H395.55V670.824C395.55 675.528 393.462 680.256 389.358 682.032L387.654 679.584C391.302 677.952 393.03 674.184 393.03 670.824V669.672ZM393.726 669.672H396.222V670.824C396.222 674.016 397.974 677.664 401.646 679.224L399.942 681.672C395.838 679.968 393.726 675.384 393.726 670.824V669.672ZM388.398 667.536H400.758V670.056H388.398V667.536ZM393.03 664.416H396.222V668.832H393.03V664.416ZM417.101 665.136H431.141V667.68H417.101V665.136ZM414.653 673.728H434.765V676.296H414.653V673.728ZM429.269 665.136H432.413V667.056C432.413 669.168 432.413 671.52 431.717 674.712L428.573 674.424C429.269 671.328 429.269 669.12 429.269 667.056V665.136ZM417.173 683.184H433.037V685.752H417.173V683.184ZM417.173 678.192H420.341V683.448H417.173V678.192ZM448.252 668.88H452.476V671.448H448.252V668.88ZM451.636 663.912H454.828V676.056H451.636V663.912ZM440.068 676.968H443.236V678.984H451.66V676.968H454.828V685.896H440.068V676.968ZM443.236 681.456V683.352H451.66V681.456H443.236ZM441.364 665.616H443.956V667.032C443.956 671.208 441.988 675.072 437.716 676.488L436.108 673.944C439.78 672.744 441.364 669.84 441.364 667.032V665.616ZM442.036 665.616H444.604V667.032C444.604 669.624 446.116 672.384 449.62 673.56L448.06 676.032C443.932 674.664 442.036 670.992 442.036 667.032V665.616ZM436.972 664.92H448.924V667.464H436.972V664.92Z" fill="#1E1E1E"/>
<path d="M366.504 702.6H367.816V704.888H371.736V702.6H373.032V709.368H366.504V702.6ZM367.816 705.944V708.296H371.736V705.944H367.816ZM372.664 705.432H376.76V706.536H372.664V705.432ZM376.36 701.784H377.688V710.168H376.36V701.784ZM368.312 710.904H377.688V716.056H368.312V710.904ZM376.392 711.96H369.608V714.984H376.392V711.96ZM391.431 701.784H392.695V710.936H391.431V701.784ZM389.079 705.704H391.815V706.808H389.079V705.704ZM388.343 702.072H389.591V710.424H388.343V702.072ZM380.439 703.512H387.767V704.568H380.439V703.512ZM384.119 705.304C385.927 705.304 387.191 706.296 387.191 707.784C387.191 709.288 385.927 710.264 384.119 710.264C382.295 710.264 381.031 709.288 381.031 707.784C381.031 706.296 382.295 705.304 384.119 705.304ZM384.119 706.296C382.983 706.296 382.215 706.888 382.215 707.784C382.215 708.696 382.983 709.272 384.119 709.272C385.239 709.272 386.007 708.696 386.007 707.784C386.007 706.888 385.239 706.296 384.119 706.296ZM383.463 701.896H384.759V704.104H383.463V701.896ZM387.959 711.192C390.967 711.192 392.775 712.088 392.775 713.704C392.775 715.304 390.967 716.216 387.959 716.216C384.919 716.216 383.127 715.304 383.127 713.704C383.127 712.088 384.919 711.192 387.959 711.192ZM387.959 712.216C385.735 712.216 384.439 712.744 384.439 713.704C384.439 714.664 385.735 715.208 387.959 715.208C390.151 715.208 391.463 714.664 391.463 713.704C391.463 712.744 390.151 712.216 387.959 712.216ZM403.29 703.336H404.378V704.504C404.378 707.16 402.778 709.384 400.346 710.264L399.674 709.208C401.85 708.44 403.29 706.568 403.29 704.504V703.336ZM403.53 703.336H404.618V704.488C404.618 706.376 405.994 708.072 408.122 708.776L407.482 709.816C405.066 709.016 403.53 706.952 403.53 704.488V703.336ZM400.074 702.856H407.802V703.944H400.074V702.856ZM409.626 701.784H410.954V710.504H409.626V701.784ZM410.586 705.448H413.098V706.568H410.586V705.448ZM406.346 710.888C409.29 710.888 411.098 711.864 411.098 713.544C411.098 715.24 409.29 716.216 406.346 716.216C403.402 716.216 401.594 715.24 401.594 713.544C401.594 711.864 403.402 710.888 406.346 710.888ZM406.346 711.96C404.202 711.96 402.89 712.536 402.89 713.544C402.89 714.568 404.202 715.176 406.346 715.176C408.49 715.176 409.802 714.568 409.802 713.544C409.802 712.536 408.49 711.96 406.346 711.96ZM414.456 713.272H427.56V714.376H414.456V713.272ZM420.28 709.768H421.592V713.64H420.28V709.768ZM420.248 702.744H421.4V703.864C421.4 706.952 418.44 709.336 415.528 709.944L414.968 708.84C417.512 708.376 420.248 706.248 420.248 703.864V702.744ZM420.488 702.744H421.64V703.864C421.64 706.264 424.392 708.376 426.936 708.84L426.36 709.944C423.448 709.336 420.488 706.952 420.488 703.864V702.744ZM432.823 709.08H434.151V712.536H432.823V709.08ZM433.479 702.712C435.703 702.712 437.303 704.104 437.303 706.12C437.303 708.136 435.703 709.528 433.479 709.528C431.255 709.528 429.655 708.136 429.655 706.12C429.655 704.104 431.255 702.712 433.479 702.712ZM433.479 703.848C432.007 703.848 430.951 704.776 430.951 706.12C430.951 707.464 432.007 708.392 433.479 708.392C434.951 708.392 436.007 707.464 436.007 706.12C436.007 704.776 434.951 703.848 433.479 703.848ZM438.951 701.784H440.279V716.248H438.951V701.784ZM439.895 707.736H442.567V708.856H439.895V707.736ZM429.191 713.128L428.999 712.024C431.607 712.008 435.095 711.992 438.039 711.592L438.151 712.584C435.095 713.096 431.719 713.128 429.191 713.128ZM458.906 701.8H460.25V712.36H458.906V701.8ZM450.954 714.84H460.682V715.928H450.954V714.84ZM450.954 711.272H452.266V715.208H450.954V711.272ZM452.49 702.792C454.65 702.792 456.25 704.264 456.25 706.36C456.25 708.44 454.65 709.928 452.49 709.928C450.33 709.928 448.714 708.44 448.714 706.36C448.714 704.264 450.33 702.792 452.49 702.792ZM452.49 703.944C451.082 703.944 450.01 704.936 450.01 706.36C450.01 707.768 451.082 708.76 452.49 708.76C453.898 708.76 454.97 707.768 454.97 706.36C454.97 704.936 453.898 703.944 452.49 703.944ZM470.825 705.288H474.041V706.376H470.825V705.288ZM473.673 701.784H475.001V709.64H473.673V701.784ZM465.737 710.344H467.049V712.104H473.689V710.344H475.001V716.056H465.737V710.344ZM467.049 713.176V714.968H473.689V713.176H467.049ZM466.793 702.92H467.881V704.104C467.881 706.728 466.249 709 463.833 709.896L463.145 708.824C465.305 708.072 466.793 706.152 466.793 704.104V702.92ZM467.049 702.92H468.121V704.088C468.121 705.96 469.529 707.768 471.625 708.504L470.953 709.544C468.601 708.696 467.049 706.52 467.049 704.088V702.92ZM463.561 702.648H471.289V703.72H463.561V702.648ZM487.719 701.8H489.047V712.648H487.719V701.8ZM488.631 706.536H491.191V707.656H488.631V706.536ZM477.863 703.544H486.407V704.616H477.863V703.544ZM482.135 705.416C484.183 705.416 485.591 706.488 485.591 708.12C485.591 709.736 484.183 710.808 482.135 710.808C480.071 710.808 478.663 709.736 478.663 708.12C478.663 706.488 480.071 705.416 482.135 705.416ZM482.135 706.456C480.823 706.456 479.927 707.112 479.927 708.12C479.927 709.112 480.823 709.768 482.135 709.768C483.431 709.768 484.327 709.112 484.327 708.12C484.327 707.112 483.431 706.456 482.135 706.456ZM481.463 701.784H482.791V704.104H481.463V701.784ZM480.039 714.84H489.703V715.928H480.039V714.84ZM480.039 711.784H481.367V715.304H480.039V711.784ZM505.614 707C505.489 706.617 505.324 706.275 505.119 705.972C504.919 705.665 504.678 705.403 504.398 705.188C504.121 704.972 503.807 704.807 503.455 704.693C503.102 704.58 502.716 704.523 502.295 704.523C501.606 704.523 500.979 704.701 500.415 705.057C499.85 705.413 499.402 705.938 499.068 706.631C498.735 707.324 498.568 708.174 498.568 709.182C498.568 710.189 498.737 711.04 499.074 711.733C499.411 712.426 499.867 712.951 500.443 713.307C501.019 713.663 501.667 713.841 502.386 713.841C503.053 713.841 503.64 713.699 504.148 713.415C504.659 713.127 505.057 712.722 505.341 712.199C505.629 711.672 505.773 711.053 505.773 710.341L506.205 710.432H502.705V709.182H507.136V710.432C507.136 711.39 506.932 712.223 506.523 712.932C506.117 713.64 505.557 714.189 504.841 714.58C504.129 714.966 503.311 715.159 502.386 715.159C501.356 715.159 500.451 714.917 499.67 714.432C498.894 713.947 498.288 713.258 497.852 712.364C497.42 711.47 497.205 710.409 497.205 709.182C497.205 708.261 497.328 707.434 497.574 706.699C497.824 705.96 498.176 705.331 498.631 704.812C499.085 704.294 499.623 703.896 500.244 703.619C500.866 703.343 501.549 703.205 502.295 703.205C502.909 703.205 503.481 703.297 504.011 703.483C504.545 703.665 505.021 703.924 505.438 704.261C505.858 704.595 506.208 704.994 506.489 705.46C506.769 705.922 506.962 706.436 507.068 707H505.614ZM509.55 715V703.364H513.482C514.394 703.364 515.141 703.528 515.72 703.858C516.304 704.184 516.735 704.625 517.016 705.182C517.296 705.739 517.436 706.36 517.436 707.045C517.436 707.731 517.296 708.354 517.016 708.915C516.739 709.475 516.311 709.922 515.732 710.256C515.152 710.585 514.41 710.75 513.504 710.75H510.686V709.5H513.459C514.084 709.5 514.586 709.392 514.964 709.176C515.343 708.96 515.618 708.669 515.788 708.301C515.963 707.93 516.05 707.511 516.05 707.045C516.05 706.58 515.963 706.163 515.788 705.795C515.618 705.428 515.341 705.14 514.959 704.932C514.576 704.72 514.069 704.614 513.436 704.614H510.959V715H509.55ZM526.07 706.273C526.001 705.697 525.725 705.25 525.24 704.932C524.755 704.614 524.161 704.455 523.456 704.455C522.941 704.455 522.49 704.538 522.104 704.705C521.721 704.871 521.422 705.1 521.206 705.392C520.994 705.684 520.888 706.015 520.888 706.386C520.888 706.697 520.962 706.964 521.109 707.188C521.261 707.407 521.454 707.591 521.689 707.739C521.924 707.883 522.17 708.002 522.428 708.097C522.685 708.187 522.922 708.261 523.138 708.318L524.32 708.636C524.623 708.716 524.96 708.826 525.331 708.966C525.706 709.106 526.064 709.297 526.405 709.54C526.75 709.778 527.034 710.085 527.257 710.46C527.481 710.835 527.592 711.295 527.592 711.841C527.592 712.47 527.428 713.038 527.098 713.545C526.772 714.053 526.295 714.456 525.666 714.756C525.041 715.055 524.282 715.205 523.388 715.205C522.554 715.205 521.833 715.07 521.223 714.801C520.617 714.532 520.14 714.157 519.791 713.676C519.446 713.195 519.251 712.636 519.206 712H520.661C520.698 712.439 520.846 712.803 521.104 713.091C521.365 713.375 521.695 713.587 522.092 713.727C522.494 713.864 522.926 713.932 523.388 713.932C523.926 713.932 524.409 713.845 524.837 713.67C525.265 713.492 525.604 713.246 525.854 712.932C526.104 712.614 526.229 712.242 526.229 711.818C526.229 711.432 526.121 711.117 525.905 710.875C525.689 710.633 525.405 710.436 525.053 710.284C524.7 710.133 524.32 710 523.911 709.886L522.479 709.477C521.57 709.216 520.85 708.843 520.32 708.358C519.789 707.873 519.524 707.239 519.524 706.455C519.524 705.803 519.7 705.235 520.053 704.75C520.409 704.261 520.886 703.883 521.484 703.614C522.087 703.341 522.759 703.205 523.501 703.205C524.251 703.205 524.918 703.339 525.501 703.608C526.085 703.873 526.547 704.237 526.888 704.699C527.232 705.161 527.414 705.686 527.433 706.273H526.07ZM544.328 701.784H545.656V716.248H544.328V701.784ZM540.088 703.336H541.4C541.4 707.528 539.512 711.192 534.68 713.56L533.976 712.488C538.152 710.472 540.088 707.4 540.088 703.56V703.336ZM534.632 703.336H540.664V704.424H534.632V703.336ZM548.503 709.736H561.623V710.824H548.503V709.736ZM550.167 702.152H559.927V705.656H551.511V707.608H550.199V704.68H558.631V703.192H550.167V702.152ZM550.199 707.176H560.247V708.216H550.199V707.176ZM554.391 707.72H555.719V710.28H554.391V707.72ZM549.959 711.928H560.023V716.12H558.695V713.016H549.959V711.928ZM573.734 701.768H575.062V716.264H573.734V701.768ZM567.43 702.888C569.574 702.888 571.11 704.856 571.11 707.928C571.11 711.016 569.574 712.984 567.43 712.984C565.302 712.984 563.766 711.016 563.766 707.928C563.766 704.856 565.302 702.888 567.43 702.888ZM567.43 704.088C566.022 704.088 565.03 705.592 565.03 707.928C565.03 710.28 566.022 711.816 567.43 711.816C568.854 711.816 569.83 710.28 569.83 707.928C569.83 705.592 568.854 704.088 567.43 704.088ZM583.048 702.376H584.36V704.456H588.44V702.376H589.736V708.696H583.048V702.376ZM584.36 705.496V707.624H588.44V705.496H584.36ZM592.344 701.784H593.672V709.24H592.344V701.784ZM593.096 704.888H595.8V705.992H593.096V704.888ZM584.488 709.944H593.672V713.448H585.832V715.624H584.52V712.456H592.376V711H584.488V709.944ZM584.52 715.032H594.2V716.088H584.52V715.032ZM607.735 701.784H609.079V712.552H607.735V701.784ZM603.335 702.904H604.743C604.743 706.648 602.071 709.48 597.975 710.824L597.399 709.752C600.967 708.584 603.335 706.312 603.335 703.464V702.904ZM598.119 702.904H604.151V704.008H598.119V702.904ZM604.071 704.76H607.943V705.848H604.071V704.76ZM603.927 708.008H607.895V709.096H603.927V708.008ZM599.927 714.84H609.431V715.928H599.927V714.84ZM599.927 711.512H601.255V715.512H599.927V711.512ZM613.03 708.008H620.438V709.096H613.03V708.008ZM615.99 708.872H617.334V712.2H615.99V708.872ZM613.03 703.144H620.358V704.232H614.358V708.392H613.03V703.144ZM622.342 701.768H623.67V716.264H622.342V701.768ZM612.15 713.128L611.958 712.024C614.79 712.008 618.342 711.976 621.398 711.608L621.51 712.6C618.342 713.08 614.886 713.144 612.15 713.128ZM630.293 710.6H631.333V711.432C631.333 713.352 630.149 715.272 628.069 716.072L627.397 715.08C629.221 714.408 630.293 712.84 630.293 711.432V710.6ZM630.597 710.6H631.589V711.432C631.589 712.904 632.437 714.488 634.181 715.192L633.621 716.2C631.525 715.384 630.597 713.368 630.597 711.432V710.6ZM635.653 710.6H636.629V711.432C636.629 713.144 635.685 715.32 633.621 716.2L633.045 715.192C634.773 714.392 635.653 712.696 635.653 711.432V710.6ZM635.909 710.6H636.949V711.432C636.949 712.952 638.005 714.456 639.861 715.08L639.173 716.072C637.077 715.304 635.909 713.448 635.909 711.432V710.6ZM633.717 705.4H637.541V706.504H633.717V705.4ZM630.549 702.6C632.677 702.6 634.26 703.992 634.26 705.992C634.26 707.976 632.677 709.368 630.549 709.368C628.421 709.368 626.853 707.976 626.853 705.992C626.853 703.992 628.421 702.6 630.549 702.6ZM630.549 703.704C629.141 703.704 628.117 704.664 628.117 705.992C628.117 707.32 629.141 708.264 630.549 708.264C631.941 708.264 632.981 707.32 632.981 705.992C632.981 704.664 631.941 703.704 630.549 703.704ZM637.173 701.784H638.501V710.024H637.173V701.784ZM642.979 710.456H644.291V712.136H651.363V710.456H652.691V716.056H642.979V710.456ZM644.291 713.16V714.984H651.363V713.16H644.291ZM641.315 708.376H654.387V709.448H641.315V708.376ZM647.187 701.944H648.323V702.584C648.323 705.096 645.523 706.904 642.547 707.352L642.067 706.312C644.675 705.96 647.187 704.408 647.187 702.584V701.944ZM647.395 701.944H648.531V702.584C648.531 704.376 651.075 705.96 653.651 706.312L653.155 707.352C650.211 706.904 647.395 705.064 647.395 702.584V701.944ZM666.562 701.784H667.89V716.248H666.562V701.784ZM656.962 703.192H658.274V712.152H656.962V703.192ZM656.962 711.368H658.146C660.338 711.368 662.626 711.208 665.074 710.696L665.234 711.832C662.722 712.344 660.434 712.52 658.146 712.52H656.962V711.368ZM680.545 701.768H681.889V716.264H680.545V701.768ZM681.569 707.48H684.257V708.6H681.569V707.48ZM671.377 711.544H672.513C675.185 711.544 677.057 711.448 679.217 711.048L679.361 712.168C677.137 712.584 675.233 712.664 672.513 712.664H671.377V711.544ZM671.377 703.176H678.097V704.264H672.689V712.04H671.377V703.176ZM686.892 715.091C686.612 715.091 686.371 714.991 686.17 714.79C685.97 714.589 685.869 714.348 685.869 714.068C685.869 713.788 685.97 713.547 686.17 713.347C686.371 713.146 686.612 713.045 686.892 713.045C687.172 713.045 687.413 713.146 687.614 713.347C687.814 713.547 687.915 713.788 687.915 714.068C687.915 714.254 687.867 714.424 687.773 714.58C687.682 714.735 687.559 714.86 687.403 714.955C687.252 715.045 687.081 715.091 686.892 715.091Z" fill="#757575"/>
<mask id="path-33-inside-8_6036_164056" fill="white">
<path d="M365 744C365 739.582 368.582 736 373 736H460C464.418 736 468 739.582 468 744V768C468 772.418 464.418 776 460 776H373C368.582 776 365 772.418 365 768V744Z"/>
</mask>
<path d="M365 744C365 739.582 368.582 736 373 736H460C464.418 736 468 739.582 468 744V768C468 772.418 464.418 776 460 776H373C368.582 776 365 772.418 365 768V744Z" fill="#2C2C2C"/>
<path d="M373 737H460V735H373V737ZM467 744V768H469V744H467ZM460 775H373V777H460V775ZM366 768V744H364V768H366ZM373 775C369.134 775 366 771.866 366 768H364C364 772.971 368.029 777 373 777V775ZM467 768C467 771.866 463.866 775 460 775V777C464.971 777 469 772.971 469 768H467ZM460 737C463.866 737 467 740.134 467 744H469C469 739.029 464.971 735 460 735V737ZM373 735C368.029 735 364 739.029 364 744H366C366 740.134 369.134 737 373 737V735Z" fill="#2C2C2C" mask="url(#path-33-inside-8_6036_164056)"/>
<path d="M381.368 750.848H382.424V753.2C382.424 756.208 380.584 759.312 378.328 760.464L377.56 759.408C379.624 758.4 381.368 755.648 381.368 753.2V750.848ZM381.608 750.848H382.664V753.2C382.664 755.488 384.296 758.064 386.392 759.056L385.64 760.112C383.352 758.976 381.608 756.064 381.608 753.2V750.848ZM378.072 750.256H385.864V751.376H378.072V750.256ZM387.576 748.784H388.92V763.248H387.576V748.784ZM388.6 754.624H391.288V755.744H388.6V754.624ZM398.215 753.952H400.983V755.056H398.215V753.952ZM395.511 750.144H396.551V752.896C396.551 755.92 395.287 758.848 393.175 760.144L392.343 759.136C394.327 757.968 395.511 755.376 395.511 752.896V750.144ZM395.767 750.144H396.791V752.848C396.791 755.168 397.879 757.632 399.783 758.784L399.015 759.824C396.935 758.544 395.767 755.664 395.767 752.848V750.144ZM403.527 748.784H404.807V763.248H403.527V748.784ZM400.599 749.088H401.847V762.528H400.599V749.088ZM417.734 748.784H419.062V763.248H417.734V748.784ZM407.558 751.12H416.23V752.192H407.558V751.12ZM411.91 753.376C413.99 753.376 415.494 754.752 415.494 756.704C415.494 758.656 413.99 760.032 411.91 760.032C409.83 760.032 408.342 758.656 408.342 756.704C408.342 754.752 409.83 753.376 411.91 753.376ZM411.91 754.48C410.582 754.48 409.606 755.392 409.606 756.704C409.606 758 410.582 758.928 411.91 758.928C413.238 758.928 414.214 758 414.214 756.704C414.214 755.392 413.238 754.48 411.91 754.48ZM411.222 748.928H412.55V751.776H411.222V748.928ZM426.456 760.304H439.56V761.408H426.456V760.304ZM432.312 756.848H433.64V760.624H432.312V756.848ZM427.992 749.808H429.304V752.384H436.68V749.808H437.992V757.2H427.992V749.808ZM429.304 753.456V756.112H436.68V753.456H429.304ZM451.703 748.784H453.031V763.248H451.703V748.784ZM447.463 750.336H448.775C448.775 754.528 446.887 758.192 442.055 760.56L441.351 759.488C445.527 757.472 447.463 754.4 447.463 750.56V750.336ZM442.007 750.336H448.039V751.424H442.007V750.336Z" fill="#F5F5F5"/>
</svg>
